<?xml version="1.0" encoding="utf-8"?>
<!-- Generator: Adobe Illustrator 16.0.0, SVG Export Plug-In . SVG Version: 6.00 Build 0)  -->
<!DOCTYPE svg PUBLIC "-//W3C//DTD SVG 1.1//EN" "http://www.w3.org/Graphics/SVG/1.1/DTD/svg11.dtd">
<svg version="1.1" id="Capa_1" xmlns="http://www.w3.org/2000/svg" xmlns:xlink="http://www.w3.org/1999/xlink" x="0px" y="0px"
	 width="413px" height="355px" viewBox="0 0 413 355" enable-background="new 0 0 413 355" xml:space="preserve">
<path fill="#681478" stroke="#681478" stroke-width="21" stroke-miterlimit="10" d="M145.288,15.001l-10.137,0.2
	c-48.538,0-121.094,41.343-123.696,152.25c-1.805,73.056,26.057,115.287,49.262,137.27c27.622,26.188,66.441,40.616,103.845,38.593
	c60.44-3.265,133.356-42.609,150.61-121.267c5.777-26.338,8.55-46.773,10.996-64.803c4.998-36.874,7.752-57.179,32.652-93.757
	L393,15L145.288,15.001L145.288,15.001z"/>
<path fill="#FFFFFF" d="M145.288,15.001l-10.137,0.2c-48.538,0-121.094,41.343-123.696,152.25
	c-1.805,73.056,26.057,115.287,49.262,137.27c27.622,26.188,66.441,40.616,103.845,38.593
	c60.44-3.265,133.356-42.609,150.61-121.267c5.777-26.338,8.55-46.773,10.996-64.803c4.998-36.874,7.752-57.179,32.652-93.757
	L393,15L145.288,15.001L145.288,15.001z"/>
<g>
</g>
<g>
</g>
<g>
</g>
<g>
</g>
<g>
</g>
<g>
</g>
</svg>
